# xmcd
#
# Track frame offsets:
# 150
# 11619
# 26236
# 44578
# 57525
# 75159
# 91009
# 101776
# 111633
# 123422
# 135434
# 149399
# 159673
# 169260
# 182084
#
# Disc length: 2622 seconds
#
#
# Revision: 0
# Processed by: cddbd v1.5.2PL0 Copyright (c) Steve Scherf et al.
# Submitted via: Nero 7, 0, 8, 2 BRITISH BLUES - EARLY TO MID 60'S
#
DISCID=ce0a3c0f
DTITLE=VARIOUS BRITISH ARTISTS - CLAPTON-PAGE and OTHERS - BLUES COLLECTION
DYEAR=1963
DGENRE=Blues
TTITLE0=BLUES COLLECTION
TTITLE1=BLUES COLLECTION
TTITLE2=BLUES COLLECTION
TTITLE3=BLUES COLLECTION
TTITLE4=BLUES COLLECTION
TTITLE5=BLUES COLLECTION
TTITLE6=BLUES COLLECTION
TTITLE7=BLUES COLLECTION
TTITLE8=BLUES COLLECTION
TTITLE9=BLUES COLLECTION
TTITLE10=BLUES COLLECTION
TTITLE11=BLUES COLLECTION
TTITLE12=BLUES COLLECTION
TTITLE13=BLUES COLLECTION
TTITLE14=BLUES COLLECTION
EXTD=
EXTT0=BRITISH BLUES - EARLY TO MID 60'S
EXTT1=BRITISH BLUES - EARLY TO MID 60'S
EXTT2=BRITISH BLUES - EARLY TO MID 60'S
EXTT3=BRITISH BLUES - EARLY TO MID 60'S
EXTT4=BRITISH BLUES - EARLY TO MID 60'S
EXTT5=BRITISH BLUES - EARLY TO MID 60'S
EXTT6=BRITISH BLUES - EARLY TO MID 60'S
EXTT7=BRITISH BLUES - EARLY TO MID 60'S
EXTT8=BRITISH BLUES - EARLY TO MID 60'S
EXTT9=BRITISH BLUES - EARLY TO MID 60'S
EXTT10=BRITISH BLUES - EARLY TO MID 60'S
EXTT11=BRITISH BLUES - EARLY TO MID 60'S
EXTT12=BRITISH BLUES - EARLY TO MID 60'S
EXTT13=BRITISH BLUES - EARLY TO MID 60'S
EXTT14=BRITISH BLUES - EARLY TO MID 60'S
PLAYORDER=
